<svg xmlns="http://www.w3.org/2000/svg" viewBox="-2 -4 514 116" role="img" aria-label="SEY/HQ"><g transform="translate(0,0)"><path d="M 50,13 C 45,4 33,0 24,2 C 9,5 2,19 9,32 C 15,43 33,46 42,55 C 53,65 52,84 39,93 C 29,100 12,97 5,87" fill="none" stroke="#F2F1EC" stroke-width="5" stroke-linecap="butt"/></g><g transform="translate(95,0)"><g stroke="#F2F1EC" stroke-width="5" stroke-linecap="butt"><line x1="0" y1="2.5" x2="48" y2="2.5"/><line x1="0" y1="50" x2="38" y2="50"/><line x1="0" y1="97.5" x2="48" y2="97.5"/></g></g><g transform="translate(183,0)"><g stroke="#F2F1EC" stroke-width="5" stroke-linecap="butt"><line x1="0" y1="0" x2="28" y2="52"/><line x1="56" y1="0" x2="28" y2="52"/><line x1="28" y1="52" x2="28" y2="100"/></g></g><g transform="translate(279,0)"><line x1="2" y1="100" x2="34" y2="0" stroke="#F2F1EC" stroke-width="5" stroke-linecap="butt"/></g><g transform="translate(355,0)"><g stroke="#F2F1EC" stroke-width="5" stroke-linecap="butt"><line x1="2.5" y1="0" x2="2.5" y2="100"/><line x1="52.5" y1="0" x2="52.5" y2="100"/><line x1="2.5" y1="50" x2="52.5" y2="50"/></g></g><g transform="translate(450,0)"><g stroke="#F2F1EC" stroke-width="5" stroke-linecap="butt"><ellipse cx="30" cy="50" rx="27.5" ry="47.5" fill="none"/><line x1="41" y1="80" x2="58" y2="104"/></g></g></svg>